<svg xmlns="http://www.w3.org/2000/svg" viewBox="0 0 32 32">
  <defs>
    <linearGradient id="toothGrad" x1="0%" y1="0%" x2="100%" y2="100%">
      <stop offset="0%" style="stop-color:#3b82f6;stop-opacity:1" />
      <stop offset="100%" style="stop-color:#10b981;stop-opacity:1" />
    </linearGradient>
  </defs>
  <!-- Tooth shape -->
  <path d="M16 2
    C12 2 9 4 8 7
    C7 9 7 11 8 13
    C9 15 9 17 8.5 20
    C8 23 8 26 9.5 28
    C10.5 29.5 12 29 13 27
    C14 25 14.5 22 16 22
    C17.5 22 18 25 19 27
    C20 29 21.5 29.5 22.5 28
    C24 26 24 23 23.5 20
    C23 17 23 15 24 13
    C25 11 25 9 24 7
    C23 4 20 2 16 2Z"
    fill="url(#toothGrad)"
    stroke="none"
  />
  <!-- Shine highlight -->
  <path d="M12 5 C11 6.5 10.5 8.5 11 10 C11.5 11 12.5 11 13 10 C13.5 9 13 7 12 5Z"
    fill="white"
    opacity="0.3"
  />
</svg>
